<svg width="24" height="24" viewBox="0 0 24 24" fill="none" xmlns="http://www.w3.org/2000/svg">
<g id="solar:link-bold">
<path id="Vector" d="M15.7289 3.88438C17.1629 2.44438 19.2609 2.41438 20.4219 3.58038C21.5859 4.74838 21.5549 6.86038 20.1189 8.30038L17.6959 10.7334C17.5595 10.875 17.4842 11.0646 17.4862 11.2612C17.4881 11.4579 17.5673 11.6459 17.7065 11.7848C17.8458 11.9236 18.034 12.0022 18.2307 12.0037C18.4273 12.0051 18.6167 11.9292 18.7579 11.7924L21.1819 9.35938C23.0929 7.44038 23.3329 4.37738 21.4849 2.52138C19.6349 0.664382 16.5779 0.906382 14.6649 2.82538L9.81895 7.69238C7.90795 9.61138 7.66795 12.6744 9.51595 14.5294C9.58497 14.6012 9.66759 14.6585 9.759 14.698C9.8504 14.7375 9.94876 14.7584 10.0483 14.7595C10.1479 14.7606 10.2467 14.7418 10.3389 14.7043C10.4312 14.6668 10.5151 14.6114 10.5856 14.5411C10.6562 14.4709 10.7121 14.3873 10.75 14.2952C10.788 14.2031 10.8072 14.1044 10.8065 14.0048C10.8059 13.9053 10.7855 13.8068 10.7464 13.7152C10.7073 13.6236 10.6504 13.5407 10.5789 13.4714C9.41495 12.3034 9.44695 10.1914 10.8819 8.75138L15.7289 3.88438Z" fill="#262932" fill-opacity="0.6"/>
<path id="Vector_2" d="M14.485 9.46962C14.3444 9.32866 14.1536 9.24931 13.9545 9.24902C13.7555 9.24874 13.5644 9.32755 13.4235 9.46812C13.2825 9.60868 13.2032 9.79949 13.2029 9.99856C13.2026 10.1976 13.2814 10.3887 13.422 10.5296C14.586 11.6976 14.555 13.8086 13.119 15.2496L8.27197 20.1156C6.83697 21.5556 4.73897 21.5856 3.57797 20.4196C2.41397 19.2516 2.44597 17.1396 3.88097 15.6996L6.30497 13.2666C6.37451 13.1968 6.42961 13.114 6.46714 13.0229C6.50467 12.9318 6.5239 12.8342 6.52371 12.7357C6.52353 12.6372 6.50394 12.5397 6.46606 12.4487C6.42819 12.3578 6.37277 12.2752 6.30297 12.2056C6.23317 12.1361 6.15036 12.081 6.05927 12.0434C5.96817 12.0059 5.87058 11.9867 5.77206 11.9869C5.67353 11.9871 5.57601 12.0067 5.48506 12.0445C5.39411 12.0824 5.31151 12.1378 5.24197 12.2076L2.81797 14.6406C0.906971 16.5606 0.666971 19.6226 2.51497 21.4786C4.36497 23.3366 7.42197 23.0936 9.33497 21.1746L14.182 16.3076C16.093 14.3896 16.333 11.3246 14.485 9.46962Z" fill="#262932" fill-opacity="0.6"/>
</g>
</svg>
